<?xml version="1.0" encoding="UTF-8"?>
<svg xmlns="http://www.w3.org/2000/svg" version="1.1" viewBox="0 0 1920 900">
  <defs>
    <style>
      .cls-1 {
        fill: #ffce00;
      }

      .cls-2 {
        fill: #0023b5;
      }

      .cls-3 {
        fill: #55f;
      }

      .cls-4 {
        fill: #12bed4;
      }

      .cls-5 {
        fill: #ff7300;
      }
    </style>
  </defs>
  <!-- Generator: Adobe Illustrator 28.6.0, SVG Export Plug-In . SVG Version: 1.2.0 Build 709)  -->
  <g>
    <g id="Capa_1">
      <g id="Capa_1-2" data-name="Capa_1">
        <g>
          <g>
            <path class="cls-4" d="M277.6,473.7c15.6-7.6,31.9-13,48.9-16.3s33.9-4.1,50.8-2c16.9,1.9,33.2,6.5,48.9,13.5,15.9,7,30.4,17,43.7,29.8,10.9,10.9,20.4,24.1,28.3,39.5s13.9,30.4,17.8,45c8,26.1,9.3,52.2,3.5,78.7-5.7,26.5-15.4,51.1-29.1,73.7-6.7,10.4-14.8,19.8-24.5,28-9.6,8.3-20,15-30.9,20.2-14.3,6.7-29.6,11.3-46.1,13.9-16.5,2.6-32.6,3.1-48.4,1.9-28.3-1.5-53.4-8.5-74.8-21.3-21.5-12.8-38.9-29.1-51.9-48.9-13-19.8-21.5-42.4-25.6-67.8-4.1-25.4-2.4-51.1,4.6-77.8,7.6-28.3,18.5-51.5,33-69.3,14.5-17.8,31.7-31.3,51.5-40.8h.2ZM298.9,568.7c-7,6.7-12.6,14.8-16.3,24.8s-6.1,20.2-7,30.9,0,21.3,2.4,31.9c2.6,10.6,6.7,20.2,12.4,28.7,4.8,7,14.8,17.2,27,22,12.2,4.8,23.9,5,36.9,4.3,14.3-.7,28.3-3.1,39.8-12.4,11.3-9.3,20-20.7,25.9-34.5,5.9-13.7,8.7-28.7,8.2-44.6-.6-16.1-4.8-30.8-12.8-44.1-5.7-9.4-13.5-16.5-23.7-20.9-10.2-4.4-20.7-6.9-31.9-7-11.1-.2-22,1.5-33,5-10.9,3.5-20.2,8.9-27.6,15.9h-.4Z"/>
            <path class="cls-4" d="M686.1,669.7c-9.1-5.7-19.1-10.2-30.2-13.5s-22.4-6.3-34.1-9.3c-11.7-2.8-22.8-6.1-33.7-9.6-10.9-3.5-20.7-8.7-29.8-15.2-19.5-14.6-30.6-32.8-33.7-54.3-3.1-21.5,1.5-43.2,13.9-65,6.7-11.3,15.4-20.7,26.3-28,10.9-7.4,22.8-13,35.8-17s26.3-6.3,40.2-6.7c13.7-.6,26.7.2,39.1,2,8,1.5,16.5,3.5,25.6,6.1,8.9,2.6,17.4,6.1,25.2,10.4,7.8,4.3,14.8,9.6,21.3,15.9,6.5,6.5,10.9,14.3,13.9,23.7,1.9,6.1,2.2,12,1.1,17.8s-3.5,10.4-7,14.3c-3.5,3.7-8,6.7-13.5,8.5-5.4,1.9-11.3,2.4-17.4,1.5-7-1.5-13.7-3.5-19.8-6.5-6.1-2.8-12.2-5.9-18.5-9.3-6.1-3.3-12.4-6.1-18.9-8.5-6.5-2.4-13.2-3.5-20.2-3.5-10.9-.6-19.8,1.5-27,5.7-7,4.3-12,9.4-14.6,15.6-2.6,6.1-2.4,12.8.7,19.8,3.1,7,9.6,13.3,19.5,18.5,9.1,4.8,18.9,8.5,29.8,11.3s21.7,5.7,32.2,8.5c10.6,2.8,21.1,6.1,31.3,10,10.2,3.7,19.3,9.1,27.4,15.6,15.6,12.8,25.2,27.6,28.7,44.6,3.5,17,2.4,33.9-3.1,50.4-5.7,16.5-15.6,31.3-29.5,44.1-13.9,12.8-30.4,21.3-49.3,25.6-13.7,2.8-28.5,4.3-44.5,4.3s-31.5-1.7-46.9-5-30-8.5-44.1-15.6c-13.9-7-25.8-16.1-35.2-27-6.7-7.6-10-16.1-10.4-25.9-.2-9.6,1.7-18.2,5.7-25.6s9.8-12.4,17.4-15.2,16.1-1.1,25.6,5c7.6,5.2,16.5,10.4,27,15.2,10.4,5,20.7,8.9,31.3,11.7,10.4,2.8,20.4,4.3,30.2,4.3s18.2-2,25.2-6.3c10.4-6.7,15.9-14.3,16.3-23.2.6-8.7-2.6-15.6-9.3-20.2h0Z"/>
            <path class="cls-4" d="M1065.8,654.7c.6,9.4.7,19.3.7,29.5s-.2,19.5-.7,28c-.6,12.8-1.1,24.5-2,35.2-.9,10.6-2.8,19.6-5.7,27-2.8,7.4-7.2,12.8-13.2,16.3-5.9,3.5-14.1,4.6-24.5,3.1-10.9-1.5-18.7-6.7-23.3-15.6-4.8-9.1-8-19.3-9.6-30.9-1.7-11.7-2.2-23.3-1.9-35.2s.4-21.1,0-27.6c-.6-10.4-.7-22.4-1.1-35.8-.2-13.5-1.7-26.3-4.3-38.3-2.6-12-7-22.4-13.2-30.9-6.1-8.5-15.4-13-27.6-13.5-15.6-.9-27.6.2-35.8,3.5-8.3,3.3-14.3,8.2-18.2,14.6-3.7,6.3-6.1,14.1-6.7,23.2-.7,9.1-1.9,18.7-3.1,29.1l-.7,27.6v51.9c0,8.5,0,17.4-.4,26.7-.2,9.3-1.9,17.6-4.6,25.2s-7.2,13.9-13.2,19.1-14.6,7.8-25.9,7.8-24.8-4.6-31.7-13.9c-6.9-9.3-10.4-20.7-10.4-34.5v-408.1c0-2.8,0-5.6.4-8.2.2-2.6.6-5.4,1.1-8.2.9-2.8,1.7-5.6,2.2-8.2.4-2.6,1.1-5,2-7.4,1.5-4.8,3.7-8.3,7-10.6,2.4-2.4,4.8-4.3,7-5.7,2.4-1.5,5-2.4,7.8-2.8,2.4-.6,5-.7,7.8-1.1,2.8-.2,5.7-.4,8.5-.4,7,0,13.9,2,20.6,6.3,2.8,1.9,5.4,3.9,7.8,6.1,2.4,2,4.3,5.2,5.7,8.9,3.7,9.1,5.7,17.6,5.7,25.6.4,2.4.7,5.7,1.1,10.4.2,4.4.4,9.1.4,13.9s0,9.3.4,13.9c.2,4.4.4,8,.4,10.4v3.5c.6,15.2.7,30.6.7,46.1v59.7c19.8-6.7,40.8-9.8,62.4-9.6,21.7.2,41.1,4.6,58.2,13.2,17.4,9.1,30.9,19.1,40,30.6,9.3,11.3,15.9,23.9,20.2,37.6,4.3,13.7,6.7,28.3,7.4,44.1.7,15.6,1.3,31.9,1.9,48.9l.2-.4Z"/>
            <path class="cls-4" d="M1340.9,521.3c3.7,6.7,5.7,13.7,6.1,21.3.2,7.6-1.5,14.6-5.4,21.3-4.3,8.5-10.4,14.3-18.2,17.4-7.8,3.1-16.5,3.5-25.9,1.1-4.3-.9-8-2.6-11.3-5s-6.7-4.8-10.4-7.4c-3.5-2.6-7.6-5-12-7.4-4.4-2.4-10.4-4.1-17.4-5-7-.9-14.8-.9-23.2,0s-15.7,2.8-22.4,5.7c-10.4,5.2-18.7,13.2-24.8,23.7-6.1,10.6-10.2,22-12,34.1-1.9,12-1.5,24.3,1.1,36.5,2.6,12.2,7.6,22.8,15.2,31.3,5.7,6.7,13.2,12,22.4,16.3,9.3,4.3,18.2,6.9,26.7,7.8,8,.9,16.1.7,24.1-.4,8-1.1,15.9-3,23.3-5.4,5.7-2.4,12-5.6,19.1-9.6,7-4.1,13.9-6.5,20.6-7.4,8.5,0,15.2,2.2,19.8,6.7,4.8,4.4,8,10,10,16.3,1.9,6.5,2.2,13.2,1.1,20.2-1.1,7-3.9,13.3-8.2,18.5-5.7,7-13.7,13.9-24.1,20.2s-20.4,10.9-29.8,13.9c-11.3,3.7-24.1,5.9-38,6.5s-27,0-39.5-1.5c-5.7-.9-11.7-2-17.8-3.5-6.1-1.5-12-3.1-17.8-5-20.7-7.6-38.2-18.3-52.2-32.2-13.9-13.9-24.6-29.6-31.9-47.2-7.4-17.4-11.5-36.1-12.4-56.1-.9-19.8,1.5-39.5,7-58.9,5.2-18.5,11.7-34.1,19.5-46.9,7.8-12.8,17-23.3,27.6-31.7,10.6-8.3,23-15.6,36.1-20.6,13.3-5,27.2-10.2,43.7-12.4,16.7-2.2,34.1-3.3,52.6,0s35,9.4,49.6,18.5c11.3,6.1,20.7,15,28.3,26.3h.6Z"/>
            <path class="cls-4" d="M1445.6,750.3c0,12.2-4.4,22.8-13.2,31.7-8.7,8.7-19.3,13.2-31.7,13.2s-22.8-4.4-31.7-13.2c-8.7-8.7-13.2-19.3-13.2-31.7s4.4-23,13.2-31.9c8.7-8.9,19.3-13.5,31.7-13.5s22.8,4.4,31.7,13.5c8.7,9.1,13.2,19.6,13.2,31.9Z"/>
            <path class="cls-4" d="M1519.9,495.8c14.3-7,29.1-12.2,44.6-15.2,15.6-3.1,31.1-3.7,46.5-2,15.4,1.7,30.2,5.7,44.5,12,14.3,6.5,27.4,15.6,39.8,27.4,12.2,12.2,21.7,25.8,28.3,40.4,6.7,14.6,11.3,30.9,14.3,48.9,1.9,12.2,5,23.7,9.3,34.1,4.3,10.4,8.9,20.7,13.9,31.3,5,10.4,9.6,20.7,14.3,31.3,4.4,10.4,8.2,21.3,10.9,32.6,2.4,10.9,1.5,21.5-2.4,31.7-4.1,10.2-12.2,16.5-24.5,18.9-7,1.5-13.9.9-20.2-1.9-6.5-2.6-12.2-6.5-17.4-11.3-5.2-5-9.8-10.4-13.9-16.3s-7.8-11.5-10.9-16.7c-10.9,14.3-22.8,25.2-35.6,33-12.8,7.8-28.2,13-46.1,15.2-15.2,1.9-29.6,2.4-43.4,1.5s-28.3-3.5-44.1-7.8c-20.4-5.2-37.1-14.3-50-27.4-13-13-23-28.2-29.8-45.4-6.9-17.2-10.6-35.9-10.9-55.8-.6-19.8,1.9-39.5,7-58.9,6.7-25.6,16.5-46.3,29.8-62.4,13.3-16.1,28.7-28.3,46.1-36.9l-.2-.4ZM1537.7,578.8c-6.7,6.7-11.9,14.5-15.6,23.3-3.7,9.1-6.1,18.5-6.7,28.3-.7,10,0,19.8,2.4,29.8,2.4,10,6.1,18.7,11.3,26.3,4.8,6.7,12.8,12.2,24.1,16.7s23.2,7.2,35.6,8.2c14.3.9,26.7-2.8,37.2-11.3,10.6-8.5,18.7-19.3,24.1-32.2s8-27,7.4-41.9-4.4-28.5-12-40.8c-5.7-8.9-13.2-15.6-22.4-19.8s-19.1-6.5-29.5-6.7c-10.4-.2-20.7,1.5-30.9,5-10.2,3.5-18.5,8.7-25.2,15.2l.2-.2Z"/>
            <path class="cls-4" d="M1881.3,525.6c0,13.3,0,28.2.4,44.6.2,16.5.4,33.7.4,51.5v52.6c0,17.2-.2,33.3-.7,48-.6,7-1.1,14.8-2,23.2-.9,8.3-2.8,15.9-5.7,23.2-2.8,7-7.2,13-13.2,17.4-5.9,4.4-13.9,6.5-23.7,6.1-14.6-.9-25.2-7.4-31.7-19.1-6.5-11.9-10-28.3-10.9-49.6,0-10.9,0-23.3-.4-37.6-.2-14.3-.6-28.7-.7-43.4-.2-14.6-.4-28.9-.4-43v-38c0-6.7,0-14.6-.4-24.1-.2-9.4,0-19.1.4-29.1.6-10,1.7-19.5,3.5-28.7s5-16.9,9.3-23.2c3.3-3.7,8-6.7,14.3-8.9s12.6-3.1,19.5-3.1,13.5,1.1,19.8,3.5c6.5,2.4,10.9,5.7,13.9,10,1.9,2.8,3.3,6.9,4.3,12,.9,5.2,1.9,10.9,2.4,17.4.7,6.5,1.1,13,1.5,19.8.2,6.9.4,13.2.4,18.9v-.6ZM1854.3,382.2c-14.6,3.7-26.9,2.2-36.5-4.6s-15.7-17.2-18.2-30.9c-1.9-10-1.1-18.7,2-26.3,3.3-7.6,8.3-13.3,14.8-17.4,6.7-4.1,14.3-5.7,22.8-5.4,8.5.6,17,3.7,25.6,10,8,5.7,13.9,12.2,17.4,19.8s4.8,14.8,3.5,22c-1.1,7-4.4,13.5-9.6,19.5-5.2,5.9-12.6,10.4-22,13.2l.2.2Z"/>
          </g>
          <g>
            <path class="cls-2" d="M361.1,189.3c-17-28.7-45.6-44.6-71.9-63.4,12.4,5.2,24.3,11.7,34.5,18.5,6.7,4.4,13-6.3,6.3-10.9-37.8-25.4-92.4-42.8-138.2-28.9-34.3,6.1-54.3,31.7-61.7,54.1-4.8,14.5-6.9,29.8-2.8,44.5,9.8,36.1,39.1,66.3,74.8,77.6l-2.6,25.6c-13.3,53.5-27.2,108-56.1,155.1-9.4,15.2-18.3,17.6-24.8,37.1-2,6.1-61.9,142.1-58.4,174.9,6.5,58.4,103.6,32.4,116.5-6.5,1.9-5.7,10.9-157.1,14.5-162.1,4.4-6.1,11.5-9.8,18.2-13.3,39.1-20.6,94.9-54.3,119.7-90.8,24.8-36.5,33.3-86.9,10.9-124.9-2.6-4.3-5.4-8.5-6.3-13.3-.9-5,1.5-9.8,1.7-15,1.9-35-1.5-60-16.1-85,11.9,9.4,22.8,20,30.8,33.3,4.1,6.9,15,.6,10.9-6.3l.2-.2Z"/>
            <path class="cls-5" d="M217,518.7c3-.7,6.1-1.5,9.1-2s3-.6,4.4-.7h.9q-.6,0,0,0c.7,0,1.3,0,2-.2,3.1-.2,6.1-.4,9.3,0-1.1,0,.7,0,.9,0,.6,0,1.3.2,1.9.4s1.5.4,2.2.6,2,.7,1.1.4.6.4.7.4c.6.4,1.1.6,1.7.9s.9.6,1.3.7c2,1.3-.6-.6.4.2s1.7,1.5,2.6,2.4c0,0,1.5,1.7.7.9s.6.7.6.9c.2.4.6.9.7,1.3,0,0,1.1,2,.6.9s.2.7.4.9c0,.4.2.9.4,1.3.6,2,0-1.1,0,0v3.3c.2-2,0,0-.2.6-1.3,4.4,1.5,9.8,6.1,10.7,4.6,1.1,9.4-1.5,10.7-6.1,3.7-13.9-4.8-28.2-17.2-34.5-14.5-7.4-31.1-4.1-46.1-.4-4.4,1.1-7.6,6.3-6.1,10.7s6.1,7.2,10.7,6.1h0l.2.2Z"/>
            <path class="cls-4" d="M169.6,483c18-15.2,36.1-33.5,50.4-50.2,13.5-15.9,24.6-33.7,33.2-52.8,7.8-17.6,17.6-39.8,15.6-59.5-2-20.4-21.9-32.6-38.9-40.2-20.7-9.1-41.5-7.8-61.5,2.6-34.6,18-58.4,52.4-71,88.6-15.9,46.3-12,81.3-5,128,1.3,8.3,2.8,15.2,3.5,18.7,1.9,7.4,8.7,9.4,14.8,7.4,8-1.3,53.9-38.3,58.9-42.6h0Z"/>
            <g>
              <path class="cls-2" d="M210.9,322.7c16.1,0,16.1-25.2,0-25.2s-16.1,25.2,0,25.2h0Z"/>
              <path class="cls-2" d="M182.7,361.8c16.1,0,16.1-25.2,0-25.2s-16.1,25.2,0,25.2h0Z"/>
              <path class="cls-2" d="M159.5,400.7c16.1,0,16.1-25.2,0-25.2s-16.1,25.2,0,25.2h0Z"/>
              <path class="cls-2" d="M139.2,444.3c16.1,0,16.1-25.2,0-25.2s-16.1,25.2,0,25.2h0Z"/>
              <path class="cls-2" d="M121.2,478.9h-.6c-1.3,0-2.4.2-3.3.7-1.1.4-2,.9-2.8,1.9-.9.7-1.5,1.7-1.9,2.8-.6,1.1-.7,2.2-.7,3.3l.4,2.4c.4,1.5,1.1,2.8,2.2,3.9l1.9,1.3c1.3.7,2.8,1.1,4.4,1.1h.6c1.3,0,2.4-.2,3.3-.7,1.1-.4,2-.9,2.8-1.9.9-.7,1.5-1.7,1.9-2.8.6-1.1.7-2.2.7-3.3l-.4-2.4c-.4-1.5-1.1-2.8-2.2-3.9l-1.9-1.3c-1.3-.7-2.8-1.1-4.4-1.1h0Z"/>
              <path class="cls-2" d="M241.8,348.5c11.3,0,11.3-17.6,0-17.6s-11.3,17.6,0,17.6h0Z"/>
              <path class="cls-2" d="M220.1,393.9c16.1,0,16.1-25.2,0-25.2s-16.1,25.2,0,25.2h0Z"/>
              <path class="cls-2" d="M191.4,437c16.1,0,16.1-25.2,0-25.2s-16.1,25.2,0,25.2h0Z"/>
              <path class="cls-2" d="M154.7,467c8.2,0,8.2-12.6,0-12.6s-8.2,12.6,0,12.6h0Z"/>
              <path class="cls-2" d="M107.7,453.5c8.2,0,8.2-12.6,0-12.6s-8.2,12.6,0,12.6h0Z"/>
              <path class="cls-2" d="M110.6,407.4c8.2,0,8.2-12.6,0-12.6s-8.2,12.6,0,12.6h0Z"/>
              <path class="cls-2" d="M131.6,368.1c16.1,0,16.1-25.2,0-25.2s-16.1,25.2,0,25.2h0Z"/>
              <path class="cls-2" d="M161.6,322.7c8.2,0,8.2-12.6,0-12.6s-8.2,12.6,0,12.6h0Z"/>
            </g>
            <path class="cls-3" d="M175.1,200.5c5.6-11.5,11.5-23.2,20.9-31.7s23.5-13.2,35.2-8c10.4,4.4,16.7,16.7,14.5,27.8,21.3-1.1,44.5,0,60.9,13.7,1.3,1.1,2.6,2.4,3.3,4.1.7,1.9.4,3.9-.2,5.7-3,8.9-12.8,13.9-22,14.5s-18.3-2.8-27.2-5.7c-8.9-3.1-18-6.1-27.2-5.4-15.4,1.3-30,13.2-45,9.1"/>
            <path class="cls-1" d="M204.9,203.8c-20.7-2.8-41.7-5.4-62.6-4.8-18.3.6-36.7,4.1-54.3,9.4-16.9,5.2-32.8,13-47.1,23.5-2.8,2-8.3,5.4-7.2,9.4,1.3,5,9.3,3.7,12.8,3.3,28.5-2.8,57.2-3.5,85.8-4.4,7.2-.2,14.5-.4,21.7,0,5.7.2,10.4,0,15.4-3.3,12.6-8.5,24.8-18,37.2-26.9,2.8-2,1.7-5.7-1.7-6.1v-.2Z"/>
            <path class="cls-2" d="M216.6,196.2c16.1,0,16.1-25.2,0-25.2s-16.1,25.2,0,25.2h0Z"/>
            <path class="cls-5" d="M35.2,243.4c2.8,2.4,8.5,1.7,11.5,1.3,28.5-2.8,57.2-3.5,85.8-4.4,7.2-.2,14.5-.4,21.7,0,5.7.2,10.4,0,15.4-3.3,12.6-8.5,24.8-18,37.2-26.9,1.9-1.3,1.9-3.3.7-4.6-53.5-.4-121,20-172.1,38.2l-.2-.2Z"/>
            <g>
              <path class="cls-3" d="M101.9,538.9c-2.6,6.3-5.2,13-8,20,30.8,2.8,62.6,3.1,92.1-3.9.6-8,1.3-15.4,1.9-22-27,8.2-56.9,8.3-86,5.9Z"/>
              <path class="cls-3" d="M80.4,594.5c-2.4,6.7-4.8,13.5-7,20,35.9,5.9,72.3,6.1,108,.6.6-6.9,1.1-14.1,1.7-21.3-33.7,5.7-68.4,6.3-102.6.9v-.2Z"/>
              <path class="cls-3" d="M65.1,642.5c-2,7.8-3.5,14.8-4.3,20.7,34.1,12.4,70,18.7,106.2,18.9,4.6-4.8,8.3-10,10.2-15.6.2-.6.4-2.6.7-5.6-38.2.9-76.3-5.2-112.8-18.5Z"/>
            </g>
          </g>
        </g>
      </g>
    </g>
  </g>
</svg>